# xmcd
#
# Track frame offsets: 
#        150
#        12335
#        26130
#        39764
#        52505
#        66013
#        81391
#        94636
#        109035
#        122737
#        135049
#        147831
#        161655
#        174192
#        187167
#        200860
#        212926
#        226712
#
# Disc length: 3176 seconds
#
# Revision: 1
# Processed by: cddbd v1.5.2PL0 Copyright (c) Steve Scherf et al.
# Submitted via: ExactAudioCopy v0.95b2
#
DISCID=e90c6612
DTITLE=Jazz Gillum - Jazz Gillum The Essential
DYEAR=2003
DGENRE=Blues
TTITLE0=Key To The Highway
TTITLE1=Sarah Jane
TTITLE2=My Old Suitcase
TTITLE3=You Are Doing Me Wrong
TTITLE4=Keyhole Blues 
TTITLE5=I Want You By My Side
TTITLE6=Let Her Go
TTITLE7=Tell Me Mama
TTITLE8=Look On Yonder Wall 
TTITLE9=Down Town Blues
TTITLE10=Jockey Blues 
TTITLE11=Got to Reap What You Sow
TTITLE12=Woke Up Cold In Hand 
TTITLE13=The Devil Blues
TTITLE14=Country Woman Blues
TTITLE15=I'm Gonna Fix It
TTITLE16=Five Feet Four
TTITLE17=The Blues What Am
EXTD=william hale
EXTT0=
EXTT1=
EXTT2=
EXTT3=
EXTT4=
EXTT5=
EXTT6=
EXTT7=
EXTT8=
EXTT9=
EXTT10=
EXTT11=
EXTT12=
EXTT13=
EXTT14=
EXTT15=
EXTT16=
EXTT17=
PLAYORDER=
